<svg width="40" height="40" viewBox="0 0 40 40" fill="none" xmlns="http://www.w3.org/2000/svg">
<rect x="0.5" y="0.5" width="39" height="39" rx="19.5" stroke="white" stroke-opacity="0.6"/>
<path d="M12.5986 24V17.388H10.8946V16.488C11.2146 16.464 11.5026 16.428 11.7586 16.38C12.0146 16.324 12.2426 16.232 12.4426 16.104C12.6426 15.968 12.8186 15.772 12.9706 15.516H13.8706V24H12.5986ZM18.8394 24.096C18.4474 24.096 18.0674 24.052 17.6994 23.964C17.3314 23.876 16.9994 23.736 16.7034 23.544C16.4154 23.344 16.1834 23.084 16.0074 22.764C15.8314 22.444 15.7434 22.052 15.7434 21.588C15.7434 21.268 15.7954 20.98 15.8994 20.724C16.0034 20.46 16.1554 20.232 16.3554 20.04C16.5634 19.848 16.8034 19.696 17.0754 19.584C16.7954 19.432 16.5754 19.252 16.4154 19.044C16.2554 18.828 16.1474 18.6 16.0914 18.36C16.0354 18.12 16.0074 17.892 16.0074 17.676C16.0074 17.268 16.0874 16.924 16.2474 16.644C16.4074 16.356 16.6234 16.124 16.8954 15.948C17.1674 15.764 17.4714 15.632 17.8074 15.552C18.1434 15.464 18.4914 15.42 18.8514 15.42C19.2034 15.42 19.5474 15.464 19.8834 15.552C20.2194 15.632 20.5234 15.764 20.7954 15.948C21.0674 16.132 21.2834 16.368 21.4434 16.656C21.6034 16.944 21.6834 17.292 21.6834 17.7C21.6834 17.908 21.6514 18.128 21.5874 18.36C21.5314 18.592 21.4234 18.812 21.2634 19.02C21.1034 19.228 20.8794 19.404 20.5914 19.548C20.8794 19.66 21.1234 19.816 21.3234 20.016C21.5314 20.216 21.6874 20.448 21.7914 20.712C21.8954 20.976 21.9474 21.272 21.9474 21.6C21.9474 22.056 21.8594 22.444 21.6834 22.764C21.5074 23.084 21.2674 23.344 20.9634 23.544C20.6674 23.736 20.3354 23.876 19.9674 23.964C19.6074 24.052 19.2314 24.096 18.8394 24.096ZM18.8394 22.944C19.0314 22.944 19.2314 22.924 19.4394 22.884C19.6474 22.844 19.8434 22.776 20.0274 22.68C20.2114 22.576 20.3594 22.436 20.4714 22.26C20.5914 22.076 20.6514 21.848 20.6514 21.576C20.6514 21.24 20.5674 20.976 20.3994 20.784C20.2314 20.584 20.0074 20.44 19.7274 20.352C19.4554 20.256 19.1594 20.208 18.8394 20.208C18.5274 20.208 18.2314 20.256 17.9514 20.352C17.6794 20.44 17.4554 20.584 17.2794 20.784C17.1114 20.976 17.0274 21.24 17.0274 21.576C17.0274 21.848 17.0834 22.076 17.1954 22.26C17.3154 22.436 17.4674 22.576 17.6514 22.68C17.8434 22.776 18.0434 22.844 18.2514 22.884C18.4594 22.924 18.6554 22.944 18.8394 22.944ZM18.8514 19.152C19.1394 19.152 19.3954 19.104 19.6194 19.008C19.8514 18.912 20.0394 18.772 20.1834 18.588C20.3274 18.396 20.3994 18.164 20.3994 17.892C20.4074 17.572 20.3394 17.316 20.1954 17.124C20.0514 16.924 19.8594 16.78 19.6194 16.692C19.3874 16.596 19.1274 16.548 18.8394 16.548C18.5434 16.548 18.2754 16.596 18.0354 16.692C17.8034 16.78 17.6194 16.92 17.4834 17.112C17.3554 17.304 17.2914 17.548 17.2914 17.844C17.2914 18.14 17.3634 18.388 17.5074 18.588C17.6514 18.78 17.8394 18.924 18.0714 19.02C18.3114 19.108 18.5714 19.152 18.8514 19.152ZM25.404 22.188V20.304H23.604V19.176H25.404V17.292H26.532V19.176H28.344V20.304H26.532V22.188H25.404Z" fill="white" fill-opacity="0.6"/>
</svg>
