<svg width="25" height="24" viewBox="0 0 25 24" fill="none" xmlns="http://www.w3.org/2000/svg">
<path d="M20.3415 6.24805C20.7588 6.24818 21.1712 6.34013 21.551 6.51772C21.9307 6.69531 22.2691 6.95441 22.5431 7.27757C22.8172 7.60072 23.0206 7.98043 23.1398 8.39113C23.2589 8.80183 23.291 9.23398 23.2339 9.65849L22.4402 15.5692C22.2476 17.0054 21.5552 18.3215 20.4908 19.2739C19.4265 20.2263 18.0624 20.7506 16.6507 20.7499H7.36031C5.94887 20.7498 4.58514 20.2252 3.52098 19.2729C2.45683 18.3207 1.76416 17.0051 1.57087 15.5692L0.777194 9.65849C0.720428 9.23405 0.752762 8.80204 0.872058 8.39151C0.991353 7.98098 1.19484 7.60143 1.46882 7.27836C1.7428 6.95529 2.08094 6.69621 2.46052 6.5185C2.84009 6.34078 3.25233 6.24857 3.66949 6.24805" fill="#A31A18"/>
<path d="M20.3415 6.24805C20.7588 6.24818 21.1712 6.34013 21.551 6.51772C21.9307 6.69531 22.2691 6.95441 22.5431 7.27757C22.8172 7.60072 23.0206 7.98043 23.1398 8.39113C23.2589 8.80183 23.291 9.23398 23.2339 9.65849L22.4402 15.5692C22.2476 17.0054 21.5552 18.3215 20.4908 19.2739C19.4265 20.2263 18.0624 20.7506 16.6507 20.7499H7.36031C5.94887 20.7498 4.58514 20.2252 3.52098 19.2729C2.45683 18.3207 1.76416 17.0051 1.57087 15.5692L0.777194 9.65849C0.720428 9.23405 0.752762 8.80204 0.872058 8.39151C0.991353 7.98098 1.19484 7.60143 1.46882 7.27836C1.7428 6.95529 2.08094 6.69621 2.46052 6.5185C2.84009 6.34078 3.25233 6.24857 3.66949 6.24805" stroke="#4C4C4C" stroke-width="1.5" stroke-miterlimit="10"/>
<path d="M6.5957 4H17.4199C17.7271 4 18.0315 4.06792 18.3125 4.19922C18.5935 4.33054 18.8457 4.52295 19.0508 4.76465C19.2558 5.00633 19.4089 5.29157 19.499 5.60156C19.5892 5.91187 19.6144 6.23926 19.5713 6.56055L18.4287 15.0615C18.3557 15.6052 18.094 16.099 17.6973 16.4541C17.3011 16.8087 16.797 17.0019 16.2783 17.002H7.7373C7.21857 17.002 6.71362 16.8088 6.31738 16.4541C5.92088 16.099 5.65894 15.605 5.58594 15.0615L4.44434 6.56055C4.40118 6.23922 4.4255 5.91185 4.51562 5.60156C4.60574 5.29144 4.75971 5.00641 4.96484 4.76465C5.17003 4.52287 5.42208 4.33054 5.70312 4.19922C5.98412 4.06793 6.28855 4 6.5957 4Z" fill="#A31A18" stroke="#4C4C4C" stroke-width="1.5" stroke-miterlimit="10"/>
</svg>
